<?xml version="1.0" encoding="UTF-8"?>
<svg id="Layer_1" data-name="Layer 1" xmlns="http://www.w3.org/2000/svg" viewBox="0 0 408.71 171.78">
  <defs>
    <style>
      .cls-1 {
        opacity: .85;
      }

      .cls-2 {
        stroke-dasharray: 2;
      }

      .cls-2, .cls-3, .cls-4, .cls-5, .cls-6, .cls-7, .cls-8, .cls-9 {
        stroke-miterlimit: 10;
      }

      .cls-2, .cls-3, .cls-10, .cls-11, .cls-5, .cls-6, .cls-7, .cls-8, .cls-9 {
        fill: none;
      }

      .cls-2, .cls-3, .cls-10, .cls-11, .cls-5, .cls-7 {
        stroke: #231f20;
      }

      .cls-2, .cls-3, .cls-10, .cls-5 {
        stroke-width: .25px;
      }

      .cls-12, .cls-13, .cls-14, .cls-15 {
        fill: #231f20;
      }

      .cls-3 {
        stroke-dasharray: 1;
      }

      .cls-13, .cls-14, .cls-15 {
        font-size: 10px;
      }

      .cls-13, .cls-16 {
        font-family: TimesNewRomanPSMT, 'Times New Roman';
      }

      .cls-4 {
        fill: #d1d3d4;
        stroke: #6d6e71;
        stroke-width: .15px;
      }

      .cls-14 {
        font-family: TimesNewRomanPS-BoldItalicMT, 'Times New Roman';
        font-style: italic;
        font-weight: 700;
      }

      .cls-10, .cls-11 {
        stroke-linejoin: round;
      }

      .cls-10, .cls-11, .cls-6, .cls-7, .cls-8, .cls-9 {
        stroke-linecap: round;
      }

      .cls-11, .cls-6, .cls-7 {
        stroke-width: .5px;
      }

      .cls-6 {
        stroke: #00a651;
      }

      .cls-17 {
        letter-spacing: -.02em;
      }

      .cls-18 {
        letter-spacing: -.08em;
      }

      .cls-8 {
        stroke: #be1e2d;
      }

      .cls-8, .cls-9 {
        stroke-width: .75px;
      }

      .cls-19 {
        letter-spacing: -.04em;
      }

      .cls-9 {
        stroke: #00a14b;
      }

      .cls-20 {
        font-family: CambriaMath, 'Cambria Math';
      }
    </style>
  </defs>
  <text class="cls-13" transform="translate(27.08 158.4)"><tspan x="0" y="0">(a) Conventional Coupling Beam</tspan></text>
  <text class="cls-13" transform="translate(230.32 158.4)"><tspan x="0" y="0">(b) Diagonally Reinforced Coupling Beam</tspan></text>
  <g>
    <g>
      <g>
        <polygon class="cls-4" points="22.87 52.2 56.17 43.16 66.14 52.2 64.36 115.66 31.14 124.59 21.14 115.58 22.87 52.2"/>
        <polyline class="cls-4" points="66.14 52.2 33.27 61.79 22.87 52.2"/>
        <line class="cls-4" x1="33.27" y1="61.79" x2="31.14" y2="124.59"/>
      </g>
      <polyline class="cls-4" points="59.24 59.7 121.54 45.16 123.61 89.54 60.56 103.9"/>
      <g>
        <polygon class="cls-4" points="117.35 33.63 150.66 24.59 160.63 33.63 158.85 97.08 125.62 106.01 115.63 97 117.35 33.63"/>
        <polyline class="cls-4" points="117.35 33.63 127.75 43.21 160.63 33.63"/>
        <line class="cls-4" x1="125.62" y1="106.01" x2="127.75" y2="43.21"/>
      </g>
    </g>
    <g>
      <line class="cls-9" x1="45.85" y1="67.56" x2="132.03" y2="46.85"/>
      <line class="cls-9" x1="133.48" y1="49.18" x2="47.62" y2="70.01"/>
      <line class="cls-9" x1="49.22" y1="72.41" x2="135.1" y2="51.56"/>
      <line class="cls-9" x1="136.71" y1="53.93" x2="50.82" y2="74.82"/>
      <line class="cls-9" x1="52.46" y1="77.18" x2="138.3" y2="56.35"/>
    </g>
    <g>
      <line class="cls-9" x1="45.13" y1="92.68" x2="132.6" y2="71.71"/>
      <line class="cls-9" x1="134.09" y1="74.03" x2="46.94" y2="95.12"/>
      <line class="cls-9" x1="48.59" y1="97.52" x2="135.75" y2="76.41"/>
      <line class="cls-9" x1="137.41" y1="78.77" x2="50.23" y2="99.92"/>
      <line class="cls-9" x1="51.9" y1="102.28" x2="139.04" y2="81.19"/>
    </g>
    <g>
      <path class="cls-11" d="M64.29,61.66c-.46,8.8-.93,17.61-1.39,26.41,4.04,3.26,8.08,6.52,12.12,9.77.47-8.94.94-17.87,1.4-26.81-4.04-3.13-8.09-6.25-12.13-9.38Z"/>
      <path class="cls-11" d="M69.35,60.42c-.46,8.8-.93,17.61-1.39,26.41,4.04,3.26,8.08,6.52,12.12,9.77.47-8.94.94-17.87,1.4-26.81-4.04-3.13-8.09-6.25-12.13-9.38Z"/>
      <path class="cls-11" d="M74.41,59.19c-.46,8.8-.93,17.61-1.39,26.41,4.04,3.26,8.08,6.52,12.12,9.77.47-8.94.94-17.87,1.4-26.81-4.04-3.13-8.09-6.25-12.13-9.38Z"/>
      <path class="cls-11" d="M79.47,57.95c-.46,8.8-.93,17.61-1.39,26.41,4.04,3.26,8.08,6.52,12.12,9.77.47-8.94.94-17.87,1.4-26.81-4.04-3.13-8.09-6.25-12.13-9.38Z"/>
      <path class="cls-11" d="M84.53,56.72c-.46,8.8-.93,17.61-1.39,26.41,4.04,3.26,8.08,6.52,12.12,9.77.47-8.94.94-17.87,1.4-26.81-4.04-3.13-8.09-6.25-12.13-9.38Z"/>
      <path class="cls-11" d="M89.59,55.48c-.46,8.8-.93,17.61-1.39,26.41,4.04,3.26,8.08,6.52,12.12,9.77.47-8.94.94-17.87,1.4-26.81-4.04-3.13-8.09-6.25-12.13-9.38Z"/>
      <path class="cls-11" d="M94.65,54.25c-.46,8.8-.93,17.61-1.39,26.41,4.04,3.26,8.08,6.52,12.12,9.77.47-8.94.94-17.87,1.4-26.81-4.04-3.13-8.09-6.25-12.13-9.38Z"/>
      <path class="cls-11" d="M99.71,53.01c-.46,8.8-.93,17.61-1.39,26.41,4.04,3.26,8.08,6.52,12.12,9.77.47-8.94.94-17.87,1.4-26.81-4.04-3.13-8.09-6.25-12.13-9.38Z"/>
      <path class="cls-11" d="M104.78,51.78c-.46,8.8-.93,17.61-1.39,26.41,4.04,3.26,8.08,6.52,12.12,9.77.47-8.94.94-17.87,1.4-26.81-4.04-3.13-8.09-6.25-12.13-9.38Z"/>
      <path class="cls-11" d="M109.84,50.54c-.46,8.8-.93,17.61-1.39,26.41,4.04,3.26,8.08,6.52,12.12,9.77.47-8.94.94-17.87,1.4-26.81-4.04-3.13-8.09-6.25-12.13-9.38Z"/>
    </g>
    <text class="cls-13" transform="translate(98.53 119.85)"><tspan x="0" y="0">Longitudinal Reinf.</tspan></text>
    <g>
      <polyline class="cls-5" points="150.77 108.97 150.77 90.33 142.76 81.3"/>
      <polygon class="cls-12" points="144.06 81.14 140.55 78.82 142.43 82.58 144.06 81.14"/>
    </g>
    <text class="cls-13" transform="translate(36.58 134.33)"><tspan class="cls-19" x="0" y="0">T</tspan><tspan x="5.76" y="0">ransverse Reinf.</tspan></text>
    <g>
      <line class="cls-5" x1="69.2" y1="53.86" x2="113.86" y2="43.16"/>
      <polygon class="cls-12" points="70.18 54.75 65.97 54.64 69.67 52.63 70.18 54.75"/>
      <polygon class="cls-12" points="113.39 44.39 117.09 42.39 112.88 42.28 113.39 44.39"/>
    </g>
    <text class="cls-14" transform="translate(88.14 45.5)"><tspan x="0" y="0">l</tspan></text>
    <text class="cls-13" transform="translate(13.82 36.47)"><tspan x="0" y="0">Shear</tspan><tspan class="cls-17" x="22.77" y="0"> </tspan><tspan class="cls-18" x="25.09" y="0">W</tspan><tspan x="33.73" y="0">all</tspan></text>
    <g>
      <line class="cls-5" x1="18.16" y1="73.31" x2="17.13" y2="111.45"/>
      <polygon class="cls-12" points="17.06 74.02 18.26 69.98 19.23 74.08 17.06 74.02"/>
      <polygon class="cls-12" points="16.06 110.68 17.04 114.78 18.24 110.74 16.06 110.68"/>
    </g>
    <text class="cls-14" transform="translate(9.78 95.35)"><tspan x="0" y="0">h</tspan></text>
    <g>
      <line class="cls-5" x1="106.5" y1="51.44" x2="108.58" y2="50.96"/>
      <polygon class="cls-12" points="106.83 51.73 105.43 51.69 106.66 51.03 106.83 51.73"/>
      <polygon class="cls-12" points="108.42 51.37 109.65 50.71 108.25 50.66 108.42 51.37"/>
    </g>
    <g>
      <polyline class="cls-5" points="108.2 47.09 108.57 45.17 111.59 29.19"/>
      <polygon class="cls-12" points="109.41 46.57 107.58 50.36 107.27 46.16 109.41 46.57"/>
    </g>
    <text class="cls-15" transform="translate(87.32 25.63)"><tspan class="cls-16" x="0" y="0">Spacing (</tspan><tspan class="cls-20" x="38.05" y="0">𝒔</tspan><tspan class="cls-16" x="43.07" y="0">)</tspan></text>
    <g>
      <line class="cls-3" x1="151.29" y1="24.2" x2="159.99" y2="21.56"/>
      <line class="cls-3" x1="161.26" y1="33.24" x2="169.96" y2="30.6"/>
      <g>
        <line class="cls-5" x1="160.1" y1="24.52" x2="165.1" y2="29.09"/>
        <polygon class="cls-12" points="159.91 25.82 157.64 22.27 161.38 24.21 159.91 25.82"/>
        <polygon class="cls-12" points="163.82 29.39 167.56 31.33 165.29 27.78 163.82 29.39"/>
      </g>
      <text class="cls-14" transform="translate(165.1 25.24)"><tspan x="0" y="0">b</tspan></text>
    </g>
    <g>
      <polyline class="cls-5" points="33.7 38.94 33.7 45.04 37.97 49.78"/>
      <polygon class="cls-12" points="37.1 49.9 39.45 51.43 38.18 48.93 37.1 49.9"/>
    </g>
    <g>
      <polyline class="cls-5" points="77.2 98.67 71.42 103.46 71.42 124.77"/>
      <polygon class="cls-12" points="75.93 98.3 79.75 96.55 77.32 99.98 75.93 98.3"/>
    </g>
    <line class="cls-2" x1="66.1" y1="58.3" x2="14.53" y2="70.9"/>
    <line class="cls-2" x1="12.05" y1="116.21" x2="64.84" y2="102.86"/>
  </g>
  <g>
    <g>
      <polyline class="cls-4" points="284.98 58.6 347.27 44.07 349.34 88.45 286.3 102.81"/>
      <g>
        <polygon class="cls-4" points="248.6 51.11 281.9 42.07 291.87 51.11 290.1 114.57 256.87 123.5 246.87 114.49 248.6 51.11"/>
        <polyline class="cls-4" points="291.87 51.11 259 60.7 248.6 51.11"/>
        <line class="cls-4" x1="256.87" y1="123.5" x2="259" y2="60.7"/>
      </g>
      <g>
        <polygon class="cls-4" points="343.08 32.54 376.39 23.5 386.36 32.54 384.58 95.99 351.35 104.92 341.36 95.91 343.08 32.54"/>
        <polyline class="cls-4" points="386.36 32.54 353.48 42.12 343.08 32.54"/>
        <line class="cls-4" x1="351.35" y1="104.92" x2="353.48" y2="42.12"/>
      </g>
    </g>
    <text class="cls-13" transform="translate(332.57 129.76)"><tspan x="0" y="0">Diagonal Reinf.</tspan></text>
    <g>
      <polyline class="cls-5" points="371.43 117.4 371.43 98.22 363.76 88.93"/>
      <polygon class="cls-12" points="365.07 88.81 361.65 86.37 363.39 90.2 365.07 88.81"/>
    </g>
    <text class="cls-13" transform="translate(240.15 35.38)"><tspan x="0" y="0">Shear</tspan><tspan class="cls-17" x="22.77" y="0"> </tspan><tspan class="cls-18" x="25.09" y="0">W</tspan><tspan x="33.73" y="0">all</tspan></text>
    <g>
      <polyline class="cls-5" points="260.21 38.42 260.21 44.14 264.43 48.53"/>
      <polygon class="cls-12" points="263.56 48.68 265.96 50.13 264.61 47.67 263.56 48.68"/>
    </g>
    <g>
      <line class="cls-5" x1="294.81" y1="52.39" x2="339.47" y2="41.68"/>
      <polygon class="cls-12" points="295.79 53.27 291.58 53.16 295.28 51.15 295.79 53.27"/>
      <polygon class="cls-12" points="339 42.92 342.7 40.91 338.49 40.8 339 42.92"/>
    </g>
    <text class="cls-14" transform="translate(313.75 44.02)"><tspan x="0" y="0">l</tspan></text>
    <line class="cls-2" x1="240.02" y1="69.82" x2="291.58" y2="57.22"/>
    <line class="cls-2" x1="237.53" y1="115.13" x2="290.32" y2="101.78"/>
    <g>
      <line class="cls-5" x1="243.65" y1="72.23" x2="242.61" y2="110.37"/>
      <polygon class="cls-12" points="242.54 72.94 243.74 68.91 244.72 73 242.54 72.94"/>
      <polygon class="cls-12" points="241.54 109.6 242.52 113.7 243.72 109.66 241.54 109.6"/>
    </g>
    <text class="cls-14" transform="translate(235.26 94.27)"><tspan x="0" y="0">h</tspan></text>
    <g>
      <g>
        <g class="cls-1">
          <line class="cls-8" x1="274.27" y1="109.83" x2="365.62" y2="46.67"/>
          <line class="cls-8" x1="271.96" y1="107.74" x2="365.68" y2="44.1"/>
          <line class="cls-8" x1="363.43" y1="41.93" x2="272.08" y2="105.15"/>
          <line class="cls-8" x1="268.61" y1="104.11" x2="359.39" y2="41.25"/>
          <line class="cls-8" x1="359.84" y1="38.52" x2="267.18" y2="102.75"/>
          <line class="cls-8" x1="267.25" y1="100.35" x2="358.39" y2="37.25"/>
          <line class="cls-8" x1="274.34" y1="107.3" x2="363.17" y2="44.57"/>
        </g>
        <g class="cls-1">
          <line class="cls-8" x1="269.75" y1="70.56" x2="361.78" y2="86.25"/>
          <line class="cls-8" x1="269.75" y1="67.19" x2="363.44" y2="84.23"/>
          <polyline class="cls-8" points="363.53 80.84 358.76 80.03 271.45 65.2"/>
          <line class="cls-8" x1="270.13" y1="61.81" x2="361.65" y2="77.34"/>
          <line class="cls-8" x1="363.63" y1="75.47" x2="270.17" y2="59.69"/>
          <line class="cls-8" x1="271.73" y1="57.8" x2="363.61" y2="73.39"/>
          <line class="cls-8" x1="271.38" y1="68.56" x2="361.7" y2="82.78"/>
        </g>
      </g>
      <g>
        <line class="cls-7" x1="277.13" y1="101.14" x2="279.85" y2="106.51"/>
        <line class="cls-7" x1="278.94" y1="91.74" x2="281.06" y2="95.94"/>
        <line class="cls-7" x1="287.72" y1="85.56" x2="289.85" y2="89.75"/>
        <line class="cls-7" x1="297.52" y1="78.93" x2="299.65" y2="83.12"/>
        <line class="cls-7" x1="307.12" y1="72.11" x2="309.24" y2="76.31"/>
        <line class="cls-7" x1="317.16" y1="65.24" x2="319.28" y2="69.43"/>
        <line class="cls-7" x1="325.91" y1="59.3" x2="328.04" y2="63.49"/>
        <line class="cls-7" x1="336.47" y1="51.85" x2="338.59" y2="56.04"/>
        <line class="cls-7" x1="348.52" y1="43.59" x2="350.64" y2="47.78"/>
        <line class="cls-7" x1="286.24" y1="94.84" x2="288.96" y2="100.21"/>
        <line class="cls-7" x1="295.64" y1="88.52" x2="298.36" y2="93.89"/>
        <line class="cls-7" x1="306.28" y1="81" x2="308.99" y2="86.37"/>
        <line class="cls-7" x1="315.77" y1="74.28" x2="318.49" y2="79.65"/>
        <line class="cls-7" x1="325" y1="68.13" x2="327.72" y2="73.5"/>
        <line class="cls-7" x1="333.45" y1="62.34" x2="336.16" y2="67.71"/>
        <line class="cls-7" x1="346.53" y1="53.06" x2="349.25" y2="58.43"/>
        <line class="cls-7" x1="356.3" y1="46.41" x2="359.01" y2="51.78"/>
      </g>
    </g>
    <g>
      <g>
        <line class="cls-6" x1="280.38" y1="101.46" x2="357.27" y2="82.2"/>
        <line class="cls-6" x1="279.75" y1="89.74" x2="356.37" y2="70.55"/>
        <line class="cls-6" x1="280.61" y1="75.82" x2="357.5" y2="55.62"/>
        <line class="cls-6" x1="279.85" y1="64.25" x2="353.96" y2="45.36"/>
      </g>
      <g>
        <path class="cls-10" d="M291.04,60.54c-.32,8.88-.64,17.75-.97,26.63,4.31,3.19,8.62,6.39,12.93,9.58.32-9.01.65-18.02.97-27.03-4.31-3.06-8.62-6.12-12.93-9.18Z"/>
        <path class="cls-10" d="M296.34,59.19c-.32,8.88-.64,17.75-.97,26.63,4.31,3.19,8.62,6.39,12.93,9.58.32-9.01.65-18.02.97-27.03-4.31-3.06-8.62-6.12-12.93-9.18Z"/>
        <path class="cls-10" d="M301.64,57.83c-.32,8.88-.64,17.75-.97,26.63,4.31,3.19,8.62,6.39,12.93,9.58.32-9.01.65-18.02.97-27.03-4.31-3.06-8.62-6.12-12.93-9.18Z"/>
        <path class="cls-10" d="M306.94,56.48c-.32,8.88-.64,17.75-.97,26.63,4.31,3.19,8.62,6.39,12.93,9.58.32-9.01.65-18.02.97-27.03-4.31-3.06-8.62-6.12-12.93-9.18Z"/>
        <path class="cls-10" d="M312.24,55.13c-.32,8.88-.64,17.75-.97,26.63,4.31,3.19,8.62,6.39,12.93,9.58.32-9.01.65-18.02.97-27.03-4.31-3.06-8.62-6.12-12.93-9.18Z"/>
        <path class="cls-10" d="M317.53,53.77c-.32,8.88-.64,17.75-.97,26.63,4.31,3.19,8.62,6.39,12.93,9.58.32-9.01.65-18.02.97-27.03-4.31-3.06-8.62-6.12-12.93-9.18Z"/>
        <path class="cls-10" d="M322.83,52.42c-.32,8.88-.64,17.75-.97,26.63,4.31,3.19,8.62,6.39,12.93,9.58.32-9.01.65-18.02.97-27.03-4.31-3.06-8.62-6.12-12.93-9.18Z"/>
        <path class="cls-10" d="M328.13,51.06c-.32,8.88-.64,17.75-.97,26.63,4.31,3.19,8.62,6.39,12.93,9.58.32-9.01.65-18.02.97-27.03-4.31-3.06-8.62-6.12-12.93-9.18Z"/>
        <path class="cls-10" d="M333.43,49.71c-.32,8.88-.64,17.75-.97,26.63,4.31,3.19,8.62,6.39,12.93,9.58.32-9.01.65-18.02.97-27.03-4.31-3.06-8.62-6.12-12.93-9.18Z"/>
        <path class="cls-10" d="M338.73,48.35c-.32,8.88-.64,17.75-.97,26.63,4.31,3.19,8.62,6.39,12.93,9.58.32-9.01.65-18.02.97-27.03-4.31-3.06-8.62-6.12-12.93-9.18Z"/>
      </g>
    </g>
    <g>
      <polyline class="cls-5" points="302.02 103.26 293.25 109.11 302.02 109.11"/>
      <path class="cls-5" d="M298.54,105.58s1.24,1.49.57,3.52"/>
    </g>
    <text class="cls-15" transform="translate(303.87 108.46)"><tspan class="cls-16" x="0" y="0">Angle (</tspan><tspan class="cls-20" x="30.27" y="0">𝜶</tspan><tspan class="cls-16" x="36.98" y="0">)</tspan></text>
    <text class="cls-13" transform="translate(265.8 135.42)"><tspan x="0" y="0">Stirrups</tspan></text>
    <g>
      <path class="cls-5" d="M285.82,127.45v-10.47c-1.47-2.53-2.94-5.06-4.41-7.6"/>
      <polygon class="cls-12" points="282.73 109.48 279.75 106.51 280.84 110.57 282.73 109.48"/>
    </g>
    <g>
      <line class="cls-3" x1="377.02" y1="23.11" x2="385.72" y2="20.47"/>
      <line class="cls-3" x1="386.99" y1="32.15" x2="395.69" y2="29.51"/>
      <g>
        <line class="cls-5" x1="385.83" y1="23.43" x2="390.84" y2="28"/>
        <polygon class="cls-12" points="385.64 24.73 383.38 21.18 387.11 23.12 385.64 24.73"/>
        <polygon class="cls-12" points="389.55 28.3 393.29 30.24 391.02 26.69 389.55 28.3"/>
      </g>
      <text class="cls-14" transform="translate(390.84 24.15)"><tspan x="0" y="0">b</tspan></text>
    </g>
    <g>
      <line class="cls-7" x1="354.31" y1="71.36" x2="353.45" y2="76.4"/>
      <line class="cls-7" x1="343.52" y1="69.4" x2="342.66" y2="74.43"/>
      <line class="cls-7" x1="333.31" y1="67.75" x2="332.44" y2="72.78"/>
      <line class="cls-7" x1="323.82" y1="66.16" x2="322.96" y2="71.19"/>
      <line class="cls-7" x1="313.3" y1="64.43" x2="312.44" y2="69.46"/>
      <line class="cls-7" x1="302.88" y1="62.52" x2="302.02" y2="67.55"/>
      <line class="cls-7" x1="293.18" y1="60.88" x2="292.32" y2="65.92"/>
      <line class="cls-7" x1="282.7" y1="59.15" x2="281.84" y2="64.19"/>
    </g>
    <g>
      <line class="cls-7" x1="356.77" y1="85.91" x2="357.64" y2="79.56"/>
      <line class="cls-7" x1="346.67" y1="84.16" x2="347.54" y2="77.81"/>
      <line class="cls-7" x1="336.57" y1="82.4" x2="337.44" y2="76.05"/>
      <line class="cls-7" x1="316.38" y1="78.89" x2="317.25" y2="72.55"/>
      <line class="cls-7" x1="326.48" y1="80.65" x2="327.34" y2="74.3"/>
      <line class="cls-7" x1="306.28" y1="77.14" x2="307.15" y2="70.79"/>
      <line class="cls-7" x1="296.18" y1="75.39" x2="297.05" y2="69.04"/>
      <line class="cls-7" x1="286.08" y1="73.8" x2="286.95" y2="67.45"/>
      <line class="cls-7" x1="275.63" y1="71.97" x2="276.5" y2="65.62"/>
    </g>
  </g>
</svg>
